<svg xmlns="http://www.w3.org/2000/svg" xmlns:xlink="http://www.w3.org/1999/xlink" width="500" zoomAndPan="magnify" viewBox="0 0 375 374.999991" height="500" preserveAspectRatio="xMidYMid meet" version="1.0"><path fill="#a6a6a6" d="M 215.570312 146.03125 C 223.609375 164.433594 259.449219 258.925781 269.644531 265.984375 C 273.832031 268.773438 278.71875 268.773438 281.046875 268.773438 C 283.378906 268.773438 284.773438 269.242188 284.773438 270.871094 C 284.773438 272.5 282.910156 272.96875 279.886719 272.96875 C 272.902344 272.96875 261.960938 272.265625 258.011719 272.265625 C 254.980469 272.265625 245.207031 272.96875 233.570312 272.96875 C 229.152344 272.96875 227.058594 272.5 227.058594 270.636719 C 227.058594 269.007812 228.917969 268.773438 231.015625 268.773438 C 234.039062 268.773438 237.53125 268.550781 240.320312 267.613281 C 242.417969 266.921875 243.34375 265.058594 243.34375 263.195312 C 243.34375 261.097656 242.375 257.625 241.257812 254.585938 C 237.910156 245.523438 218.980469 194.0625 207.71875 165.84375 Z M 215.570312 146.03125 " fill-opacity="1" fill-rule="nonzero"/><path fill="#ffffff" d="M 178.421875 107.972656 C 182.839844 97.039062 184.242188 93.78125 187.265625 93.78125 C 190.523438 93.78125 191.917969 97.5 197.964844 110.996094 C 199.160156 113.714844 200.675781 117.171875 202.476562 121.3125 C 191.675781 148.605469 180.707031 175.046875 169.851562 203.6875 L 156.398438 237.664062 L 156.910156 237.863281 L 154.449219 244.34375 C 151.191406 252.722656 149.101562 259.238281 149.101562 262.261719 C 149.101562 264.355469 149.796875 265.984375 151.425781 267.144531 C 153.289062 268.550781 156.777344 268.773438 160.503906 268.773438 C 162.59375 268.773438 163.996094 269.242188 163.996094 270.871094 C 163.996094 272.5 161.429688 272.96875 158.640625 272.96875 C 147.007812 272.96875 135.832031 272.265625 130.015625 272.265625 C 121.875 272.265625 108.609375 272.96875 96.273438 272.96875 C 92.78125 272.96875 90.226562 272.734375 90.226562 270.871094 C 90.226562 269.476562 90.917969 268.773438 93.015625 268.773438 C 94.878906 268.773438 98.605469 268.773438 102.09375 267.847656 C 110.472656 265.515625 114.421875 262.960938 119.777344 250.164062 Z M 178.421875 107.972656 " fill-opacity="1" fill-rule="nonzero"/></svg>